# xmcd CD database file
# Copyright (C) 1997 Ti Kan
# 
# Track frame offsets:
#     182
#     13532
#     28185
#     40755
#     54460
#     67810
#     80422
#     97830
#     109232
#     128702
# 
# Disc length: 1884 seconds
# 
# Revision: 1
# Processed by: cddbd v1.4b41PL1 Copyright (c) Steve Scherf et al.
# Submitted via: DiscPlay 4.0.4
# 
DISCID=73075a0a
DTITLE=Percy Sledge - Greatest Hits Of
DYEAR=1900
DGENRE=
TTITLE0=When A Man Loves A Woman
TTITLE1=Warm And Tender Love
TTITLE2=It Tears Me Up
TTITLE3=Take The Time To Know Her
TTITLE4=My Special Prayer
TTITLE5=Sudden Stop
TTITLE6=Try A Little Tenderness
TTITLE7=(Sittin' On) The Dock Of The Bay
TTITLE8=You Send Me
TTITLE9=Cover Me
EXTD=
EXTT0=
EXTT1=
EXTT2=
EXTT3=
EXTT4=
EXTT5=
EXTT6=
EXTT7=
EXTT8=
EXTT9=
PLAYORDER=
